<svg width="40" height="45" viewBox="0 0 40 45" fill="none" xmlns="http://www.w3.org/2000/svg">
<path d="M3.67601 40.4599L0 0L39.6021 0.0154425L35.957 40.429L19.7702 45L3.67601 40.4599ZM32.976 38.2515L36.0497 3.59815H19.8319L19.9555 41.8188L32.976 38.2515ZM18.3183 8.67879H14.3797L14.3334 29.4183L6.68788 27.3336L6.70332 32.0745L18.3183 35.2093V8.67879Z" fill="#D4B830"/>
<path opacity="0.986" d="M6.70331 32.0745L6.68787 27.3336C6.68787 27.3336 11.5686 28.708 14.3334 29.4184L14.3797 8.69427H18.3183V35.2094L6.70331 32.0745Z" fill="#EBEBEB" fill-opacity="0.9216"/>
<path d="M19.8319 3.5827H36.0496L32.976 38.2361L19.8319 41.8034V3.5827ZM32.142 32.4296L33.2077 19.4732L25.3305 20.3535V13.4351L33.7328 13.4043L34.0726 8.67879L21.3919 8.74056L21.5618 25.9437L29.2228 24.6311L29.1146 28.4609L21.3919 30.5148L21.4692 35.2093L32.142 32.4296Z" fill="#FDD83C"/>
</svg>
