<svg width="86" height="45" viewBox="0 0 86 45" fill="none" xmlns="http://www.w3.org/2000/svg">
<path d="M0 22.5C0 34.9263 19.1504 45 42.7726 45C66.3948 45 85.5453 34.9263 85.5453 22.5C85.5453 10.0739 66.3948 0 42.7726 0C19.1504 0 0 10.0739 0 22.5Z" fill="url(#paint0_radial_105_63)"/>
<path d="M42.7726 43.3294C65.4721 43.3294 83.8743 34.0037 83.8743 22.4999C83.8743 10.9963 65.4721 1.67039 42.7726 1.67039C20.073 1.67039 1.67081 10.9963 1.67081 22.4999C1.67081 34.0037 20.073 43.3294 42.7726 43.3294Z" fill="#777BB3"/>
<path d="M23.2388 25.0825C25.1053 25.0825 26.4987 24.7383 27.3803 24.0598C28.2526 23.3882 28.855 22.2247 29.1707 20.6017C29.4651 19.0846 29.353 18.0254 28.8375 17.4538C28.3104 16.8699 27.1709 16.5738 25.4506 16.5738H22.4677L20.8141 25.0825H23.2388ZM13.4827 35.5637C13.3442 35.5637 13.2127 35.5018 13.1247 35.3948C13.0365 35.2879 13.0008 35.1471 13.0272 35.0111L17.4097 12.4628C17.4521 12.2449 17.6431 12.0874 17.8653 12.0874H27.3106C30.279 12.0874 32.4885 12.8934 33.8773 14.4833C35.2735 16.0815 35.7047 18.3156 35.1587 21.1233C34.9366 22.2672 34.5544 23.3296 34.023 24.2807C33.491 25.2329 32.7879 26.1139 31.9328 26.8998C30.9093 27.8578 29.7509 28.5524 28.4928 28.9611C27.2547 29.3644 25.6647 29.5689 23.7669 29.5689H19.9423L18.8501 35.1881C18.8077 35.4062 18.6168 35.5637 18.3947 35.5637H13.4827Z" fill="black"/>
<path d="M22.8503 17.0379H25.4506C27.5269 17.0379 28.2481 17.4935 28.4932 17.765C28.8997 18.2158 28.9765 19.1663 28.7152 20.5136C28.4215 22.0219 27.8773 23.0914 27.0973 23.692C26.2987 24.3068 25.0004 24.6183 23.2388 24.6183H21.3771L22.8503 17.0379ZM27.3106 11.6232H17.8652C17.4209 11.6232 17.0389 11.9382 16.9541 12.3743L12.5717 34.9226C12.5187 35.1947 12.5902 35.4761 12.7664 35.6901C12.9428 35.904 13.2055 36.0278 13.4827 36.0278H18.3946C18.839 36.0278 19.221 35.7128 19.3058 35.2767L20.325 30.033H23.767C25.7135 30.033 27.3521 29.8207 28.6369 29.4023C29.9582 28.973 31.1739 28.2451 32.2499 27.2389C33.1397 26.4202 33.8727 25.5012 34.4281 24.5073C34.9836 23.513 35.3828 22.4042 35.6144 21.2118C36.1891 18.2563 35.7222 15.8896 34.2268 14.178C32.746 12.4827 30.4189 11.6232 27.3106 11.6232ZM20.251 25.5466H23.2388C25.2192 25.5466 26.6943 25.1736 27.6635 24.4274C28.6329 23.6812 29.2867 22.4356 29.6264 20.6903C29.9514 19.0145 29.8034 17.8319 29.1822 17.143C28.5603 16.4542 27.3167 16.1096 25.4506 16.1096H22.0852L20.251 25.5466ZM27.3106 12.5514C30.1521 12.5514 32.2249 13.2971 33.5279 14.7886C34.8306 16.2801 35.223 18.362 34.7032 21.0348C34.4892 22.1358 34.1273 23.1425 33.6179 24.0545C33.1078 24.9671 32.4418 25.8015 31.6188 26.5582C30.638 27.476 29.5484 28.1301 28.3495 28.5197C27.1505 28.9103 25.6234 29.1048 23.767 29.1048H19.5596L18.3946 35.0995H13.4827L17.8652 12.5514H27.3106Z" fill="white"/>
<path d="M46.4209 29.5689C46.2823 29.5689 46.151 29.507 46.063 29.4C45.9746 29.2931 45.9389 29.1524 45.9653 29.0163L47.9039 19.0396C48.0883 18.0908 48.0429 17.4098 47.776 17.122C47.6126 16.9461 47.1219 16.6511 45.6709 16.6511H42.1588L39.7215 29.1933C39.6791 29.4114 39.488 29.5689 39.2659 29.5689H34.3927C34.2541 29.5689 34.1227 29.507 34.0346 29.4C33.9464 29.2931 33.9106 29.1523 33.9371 29.0163L38.3196 6.46804C38.3619 6.25006 38.553 6.09257 38.7752 6.09257H43.6483C43.7869 6.09257 43.9183 6.15445 44.0065 6.26135C44.0947 6.36841 44.1304 6.50903 44.1039 6.64517L43.0464 12.0874H46.8246C49.7028 12.0874 51.6546 12.5948 52.7913 13.6387C53.9501 14.7037 54.3116 16.4065 53.8661 18.7005L51.8271 29.1933C51.7847 29.4114 51.5938 29.5689 51.3715 29.5689H46.4209Z" fill="black"/>
<path d="M43.6483 5.62846H38.7752C38.3307 5.62846 37.9487 5.94344 37.864 6.37955L33.4815 28.9278C33.4286 29.1999 33.5001 29.4813 33.6764 29.6953C33.8528 29.9093 34.1155 30.033 34.3927 30.033H39.2659C39.7102 30.033 40.0923 29.718 40.1771 29.2819L42.5414 17.1152H45.6709C47.1194 17.1152 47.4234 17.4246 47.4357 17.4379C47.5235 17.5325 47.6391 17.9703 47.4483 18.9511L45.5097 28.9278C45.4568 29.1999 45.5283 29.4813 45.7047 29.6953C45.881 29.9093 46.1437 30.033 46.4209 30.033H51.3715C51.8158 30.033 52.1979 29.718 52.2827 29.2819L54.3215 18.7891C54.8 16.3261 54.3907 14.4785 53.1054 13.2971C51.8789 12.1707 49.8244 11.6232 46.8246 11.6232H43.6092L44.5596 6.73382C44.6123 6.46169 44.541 6.18013 44.3646 5.96633C44.1883 5.75238 43.9256 5.62846 43.6483 5.62846ZM43.6483 6.55668L42.4833 12.5515H46.8246C49.5562 12.5515 51.4403 13.0283 52.4773 13.9806C53.5143 14.9336 53.8249 16.4777 53.4105 18.6122L51.3715 29.1048H46.4209L48.3595 19.1282C48.5802 17.9933 48.4991 17.2192 48.116 16.8064C47.7328 16.3937 46.9177 16.187 45.6709 16.187H41.7761L39.2659 29.1048H34.3927L38.7752 6.55668H43.6483Z" fill="white"/>
<path d="M61.5768 25.0825C63.4433 25.0825 64.8367 24.7383 65.7184 24.0598C66.5906 23.3884 67.193 22.2248 67.5089 20.6017C67.8033 19.0846 67.6912 18.0254 67.1755 17.4538C66.6485 16.8699 65.5089 16.5738 63.7886 16.5738H60.8058L59.1521 25.0825H61.5768ZM51.8209 35.5637C51.6824 35.5637 51.5509 35.5018 51.4629 35.3948C51.3747 35.2879 51.3388 35.1471 51.3653 35.0111L55.7477 12.4628C55.7903 12.2449 55.9812 12.0874 56.2035 12.0874H65.6486C68.6172 12.0874 70.8266 12.8934 72.2155 14.4833C73.6117 16.0814 74.0427 18.3155 73.4969 21.1233C73.2744 22.2672 72.8925 23.3296 72.3611 24.2807C71.829 25.2329 71.1259 26.1139 70.2709 26.8998C69.2473 27.8578 68.0889 28.5524 66.8309 28.9611C65.5928 29.3644 64.0027 29.5689 62.105 29.5689H58.2802L57.1885 35.1881C57.1459 35.4062 56.955 35.5637 56.7327 35.5637H51.8209Z" fill="black"/>
<path d="M61.1884 17.0379H63.7887C65.8649 17.0379 66.5862 17.4935 66.8312 17.765C67.2379 18.2158 67.3147 19.1663 67.0532 20.5134C66.7596 22.022 66.2152 23.0914 65.4353 23.692C64.6367 24.3068 63.3385 24.6183 61.5768 24.6183H59.7153L61.1884 17.0379ZM65.6487 11.6232H56.2034C55.759 11.6232 55.3771 11.9382 55.2923 12.3743L50.9098 34.9226C50.8569 35.1947 50.9284 35.4761 51.1046 35.6901C51.281 35.904 51.5437 36.0278 51.8209 36.0278H56.7328C57.1771 36.0278 57.5592 35.7128 57.644 35.2767L58.663 30.033H62.105C64.0515 30.033 65.6901 29.8207 66.9749 29.4023C68.2963 28.973 69.5122 28.2449 70.5882 27.2386C71.4781 26.42 72.2107 25.5012 72.7661 24.5073C73.3217 23.513 73.7208 22.4042 73.9524 21.2118C74.5271 18.2561 74.0602 15.8895 72.5649 14.1778C71.084 12.4827 68.7571 11.6232 65.6487 11.6232ZM58.5892 25.5466H61.5768C63.5572 25.5466 65.0323 25.1736 66.0015 24.4274C66.9711 23.6812 67.6247 22.4356 67.9644 20.6903C68.2896 19.0145 68.1416 17.8319 67.5203 17.143C66.8984 16.4542 65.6547 16.1096 63.7887 16.1096H60.4232L58.5892 25.5466ZM65.6487 12.5514C68.4901 12.5514 70.563 13.2971 71.8659 14.7886C73.1688 16.2801 73.561 18.362 73.0412 21.0348C72.8272 22.1358 72.4654 23.1425 71.9559 24.0545C71.4459 24.9671 70.7799 25.8015 69.9569 26.5582C68.976 27.476 67.8865 28.1301 66.6875 28.5197C65.4885 28.9103 63.9615 29.1048 62.105 29.1048H57.8977L56.7328 35.0995H51.8209L56.2034 12.5514H65.6487Z" fill="white"/>
<defs>
<radialGradient id="paint0_radial_105_63" cx="0" cy="0" r="1" gradientUnits="userSpaceOnUse" gradientTransform="translate(25.6809 7.91031) scale(56.1665)">
<stop stop-color="#AEB2D5"/>
<stop offset="0.3" stop-color="#AEB2D5"/>
<stop offset="0.75" stop-color="#484C89"/>
<stop offset="1" stop-color="#484C89"/>
</radialGradient>
</defs>
</svg>
